HIERARCHY
ROOT Hips
{
	OFFSET 0.000000 0.000000 0.000000
	CHANNELS 6 Xposition Yposition Zposition Zrotation Yrotation Xrotation 
	JOINT LHipJoint
	{
		OFFSET 0.000000 0.000000 0.000000
		CHANNELS 3 Zrotation Yrotation Xrotation
		JOINT LeftUpLeg
		{
			OFFSET 1.363060 -1.794630 0.839290
			CHANNELS 3 Zrotation Yrotation Xrotation
			JOINT LeftLeg
			{
				OFFSET 2.448110 -6.726130 0.000000
				CHANNELS 3 Zrotation Yrotation Xrotation
				JOINT LeftFoot
				{
					OFFSET 2.562200 -7.039590 0.000000
					CHANNELS 3 Zrotation Yrotation Xrotation
					JOINT LeftToeBase
					{
						OFFSET 0.157640 -0.433110 2.322550
						CHANNELS 3 Zrotation Yrotation Xrotation
						End Site
						{
							OFFSET 0.000000 0.000000 0.000000
						}
					}
				}
			}
		}
	}
	JOINT RHipJoint
	{
		OFFSET 0.000000 0.000000 0.000000
		CHANNELS 3 Zrotation Yrotation Xrotation
		JOINT RightUpLeg
		{
			OFFSET -1.305520 -1.794630 0.839290
			CHANNELS 3 Zrotation Yrotation Xrotation
			JOINT RightLeg
			{
				OFFSET -2.542530 -6.985550 0.000000
				CHANNELS 3 Zrotation Yrotation Xrotation
				JOINT RightFoot
				{
					OFFSET -2.568260 -7.056230 0.000000
					CHANNELS 3 Zrotation Yrotation Xrotation
					JOINT RightToeBase
					{
						OFFSET -0.164730 -0.452590 2.363150
						CHANNELS 3 Zrotation Yrotation Xrotation
						End Site
						{
							OFFSET 0.000000 0.000000 0.000000
						}
					}
				}
			}
		}
	}
	JOINT LowerBack
	{
		OFFSET 0.000000 0.000000 0.000000
		CHANNELS 3 Zrotation Yrotation Xrotation
		JOINT Spine
		{
			OFFSET 0.028270 2.035590 -0.193380
			CHANNELS 3 Zrotation Yrotation Xrotation
			JOINT Spine1
			{
				OFFSET 0.056720 2.048850 -0.042750
				CHANNELS 3 Zrotation Yrotation Xrotation
				JOINT Neck
				{
					OFFSET 0.000000 0.000000 0.000000
					CHANNELS 3 Zrotation Yrotation Xrotation
					JOINT Neck1
					{
						OFFSET -0.054170 1.746240 0.172020
						CHANNELS 3 Zrotation Yrotation Xrotation
						JOINT Head
						{
							OFFSET 0.104070 1.761360 -0.123970
							CHANNELS 3 Zrotation Yrotation Xrotation
							End Site
							{
								OFFSET 0.000000 0.000000 0.000000
							}
						}
					}
				}
				JOINT LeftShoulder
				{
					OFFSET 0.000000 0.000000 0.000000
					CHANNELS 3 Zrotation Yrotation Xrotation
					JOINT LeftArm
					{
						OFFSET 3.362410 1.200890 -0.311210
						CHANNELS 3 Zrotation Yrotation Xrotation
						JOINT LeftForeArm
						{
							OFFSET 4.983000 -0.000000 -0.000000
							CHANNELS 3 Zrotation Yrotation Xrotation
							JOINT LeftHand
							{
								OFFSET 3.483560 -0.000000 -0.000000
								CHANNELS 3 Zrotation Yrotation Xrotation
								JOINT LeftFingerBase
								{
									OFFSET 0.000000 0.000000 0.000000
									CHANNELS 3 Zrotation Yrotation Xrotation
									JOINT LeftHandIndex1
									{
										OFFSET 0.715260 -0.000000 -0.000000
										CHANNELS 3 Zrotation Yrotation Xrotation
										End Site
										{
											OFFSET 0.000000 0.000000 0.000000
										}
									}
								}
								JOINT LThumb
								{
									OFFSET 0.000000 0.000000 0.000000
									CHANNELS 3 Zrotation Yrotation Xrotation
									End Site
									{
										OFFSET 0.000000 0.000000 0.000000
									}
								}
							}
						}
					}
				}
				JOINT RightShoulder
				{
					OFFSET 0.000000 0.000000 0.000000
					CHANNELS 3 Zrotation Yrotation Xrotation
					JOINT RightArm
					{
						OFFSET -3.136600 1.374050 -0.404650
						CHANNELS 3 Zrotation Yrotation Xrotation
						JOINT RightForeArm
						{
							OFFSET -5.241900 -0.000000 -0.000000
							CHANNELS 3 Zrotation Yrotation Xrotation
							JOINT RightHand
							{
								OFFSET -3.444170 -0.000000 -0.000000
								CHANNELS 3 Zrotation Yrotation Xrotation
								JOINT RightFingerBase
								{
									OFFSET 0.000000 0.000000 0.000000
									CHANNELS 3 Zrotation Yrotation Xrotation
									JOINT RightHandIndex1
									{
										OFFSET -0.622530 -0.000000 -0.000000
										CHANNELS 3 Zrotation Yrotation Xrotation
										End Site
										{
											OFFSET 0.000000 0.000000 0.000000
										}
									}
								}
								JOINT RThumb
								{
									OFFSET 0.000000 0.000000 0.000000
									CHANNELS 3 Zrotation Yrotation Xrotation
									End Site
									{
										OFFSET 0.000000 0.000000 0.000000
									}
								}
							}
						}
					}
				}
			}
		}
	}
}
MOTION
Frames: 12
Frame Time: 0.033333
98.209068 9.538618 8.238624 89.719873 -7.555111 -57.006032 -72.761605 -42.621115 34.739149 -1.257135 6.429672 -44.525721 -109.412614 62.269880 -73.254418 -35.995192 36.854039 -44.483103 3.975554 -2.031369 -0.285524 27.561637 -1.290172 -105.804273 66.836120 -63.035827 -128.810996 118.275769 -31.445559 -85.742369 47.792611 -24.086000 -20.115619 6.790141 -0.628233 -26.378473 -100.188298 69.079030 -16.176858 166.360546 70.999239 156.277005 137.266016 62.298126 136.012534 2.091724 -15.783081 29.899834 -8.826368 -37.448650 4.148925 0.573911 -0.419430 0.401112 78.837386 63.483464 9.920566 96.597977 79.548250 24.592760 -8.780635 13.038328 -100.923382 -9.564243 -43.264131 88.832610 -50.345007 -25.197738 7.834900 -0.585136 -0.426504 0.429977 0.550228 0.404555 -0.577737 57.795303 38.469697 79.716191 47.792036 17.135568 173.446287 21.291396 -37.061586 34.991078 7.810466 -7.293290 56.067104 32.034859 40.965310 26.159821 -0.552815 0.629982 -0.573478 -0.566513 -0.536830 -0.357219 
98.208015 9.539443 8.239542 89.717548 -7.509120 -56.922942 -72.695075 -42.738467 34.631655 -1.327874 6.288204 -44.559600 -109.271603 62.421478 -72.984786 -35.541396 37.253119 -44.488306 3.950388 -2.051074 0.486303 27.620565 -1.243026 -105.796320 66.775360 -63.217281 -128.794692 118.388513 -31.572905 -85.879456 47.156086 -24.190373 -19.511323 6.834257 -0.644278 -26.305423 -100.413783 68.997121 -16.481395 166.367804 71.007476 156.271413 137.591662 62.295538 136.248393 1.776810 -16.230379 30.027054 -8.695264 -37.747741 4.360844 0.559338 -0.431858 0.418093 78.795868 63.431872 9.701108 94.072866 79.652420 22.104855 -8.564626 13.160748 -100.967173 -10.078833 -44.412787 89.581160 -50.232532 -25.354796 7.803015 -0.588828 -0.420537 0.426973 0.549625 0.382082 -0.573920 57.742447 38.532738 79.518014 47.849584 17.120642 173.566641 21.393994 -36.828893 35.006054 7.691024 -7.471045 55.640431 31.726664 41.133255 25.645630 -0.576442 0.624274 -0.578808 -0.554084 -0.543376 -0.385628 
98.207222 9.540339 8.240449 89.674633 -7.514837 -56.860597 -72.626113 -42.790513 34.634123 -1.401145 6.218053 -44.677145 -109.137002 62.519680 -72.472201 -34.770724 37.653177 -44.483711 3.896216 -2.084708 1.495031 27.524206 -1.269030 -105.777849 67.072514 -63.436921 -129.229109 118.209223 -31.740651 -85.877720 45.799878 -24.240494 -18.657797 6.877754 -0.648124 -26.447383 -100.358241 68.982095 -16.522222 166.641019 70.964531 156.593197 137.600588 62.375562 136.238778 1.894984 -16.183736 29.784848 -8.916107 -37.986605 4.821278 0.574813 -0.427292 0.407892 78.618446 63.379556 9.467972 92.006745 79.845520 19.928866 -8.195191 13.197209 -100.743449 -9.029843 -45.485003 88.881471 -50.465233 -25.174430 8.176458 -0.585273 -0.425437 0.432628 0.553171 0.407040 -0.581600 57.529482 38.722906 79.350995 47.945885 17.072335 173.608636 21.652039 -36.662082 34.991998 7.942469 -7.532079 55.298396 30.447805 41.749667 23.890823 -0.552754 0.633422 -0.575638 -0.571076 -0.539695 -0.358199 
98.206535 9.541171 8.241342 89.654128 -7.487194 -56.790734 -72.530662 -42.852985 34.462403 -1.415902 6.057059 -44.711954 -109.210255 62.706081 -72.184874 -34.596619 38.137122 -44.913154 3.821957 -2.094040 2.502339 27.595799 -1.177858 -105.709482 66.921456 -63.564125 -129.245186 118.250213 -31.902646 -85.996733 45.242806 -24.454550 -18.201050 6.929963 -0.669824 -26.440735 -100.581338 68.967850 -16.851066 166.701422 71.042617 156.611516 137.983185 62.354622 136.520595 1.526247 -16.682231 30.058117 -8.655023 -38.203677 4.928216 0.565064 -0.434426 0.420269 78.427930 63.357373 9.125345 89.409507 79.988364 17.276035 -7.754669 13.292121 -100.744785 -9.427575 -46.348391 89.932522 -50.688359 -25.387150 8.189029 -0.594870 -0.423770 0.429847 0.552329 0.379288 -0.571759 57.408048 38.837260 79.130695 47.998358 17.100820 173.614489 21.880806 -36.474462 34.960304 7.715230 -7.679817 54.750957 30.206608 41.479707 23.572690 -0.583590 0.629321 -0.577163 -0.553337 -0.542349 -0.392638 
98.205879 9.541818 8.242195 89.604460 -7.551385 -56.725875 -72.452875 -42.867337 34.432830 -1.394451 6.017771 -44.880569 -109.342103 62.924885 -71.679099 -34.424751 38.605494 -45.199138 3.758282 -2.121383 3.475605 27.519866 -1.143059 -105.618198 67.205109 -63.710952 -129.762751 118.072146 -32.000949 -86.007891 43.911245 -24.535997 -17.476119 6.959037 -0.683056 -26.562058 -100.413916 68.960299 -16.851557 167.078315 71.004794 157.063104 138.092858 62.482574 136.558948 1.915863 -16.525789 29.670472 -9.129603 -38.648853 5.612694 0.571753 -0.432118 0.416171 78.198938 63.338569 8.917566 86.941453 80.132920 14.658546 -7.374243 13.398969 -100.583711 -7.345111 -47.290677 88.636360 -51.209840 -25.306457 8.174859 -0.581727 -0.427268 0.439416 0.556847 0.420077 -0.589435 57.210533 39.012056 78.985243 48.023762 17.121665 173.563685 22.327306 -36.420512 34.868885 7.860717 -7.481827 54.303637 29.125224 41.403090 22.559861 -0.555786 0.637822 -0.588594 -0.583272 -0.542720 -0.362596 
98.205307 9.542331 8.243013 89.571485 -7.565099 -56.635080 -72.397535 -42.890885 34.269858 -1.322334 5.930150 -44.931611 -109.524137 63.194126 -71.280241 -34.752631 39.099869 -45.824472 3.661767 -2.119442 4.544018 27.638173 -1.000399 -105.433638 66.981109 -63.651623 -129.814056 118.137962 -32.043912 -86.072614 43.487317 -24.826553 -17.277583 6.962886 -0.714454 -26.385780 -100.499687 68.949426 -17.081845 167.168710 71.112525 157.114740 138.568427 62.442049 136.871408 1.742497 -16.749083 29.943620 -8.909649 -38.740493 5.663122 0.575964 -0.433107 0.424006 77.886426 63.312733 8.544300 84.191463 80.091049 11.837389 -7.017875 13.711441 -100.737657 -6.675839 -47.603161 88.779786 -51.786967 -25.312204 8.285043 -0.600476 -0.427922 0.427102 0.556543 0.384838 -0.575879 57.065235 39.086609 78.778172 48.014407 17.255745 173.444335 22.715381 -36.388634 34.780892 7.458982 -7.424715 53.894707 29.375609 39.853161 23.002982 -0.593484 0.634246 -0.584725 -0.547951 -0.551738 -0.396551 
98.204765 9.542860 8.243873 89.543064 -7.690192 -56.551481 -72.293541 -42.929274 34.216921 -1.276391 5.961980 -45.135406 -109.902394 63.592266 -70.746732 -35.006197 39.245206 -45.792719 3.644871 -2.166592 5.272139 27.694090 -0.928953 -105.244227 67.303594 -63.664528 -130.276960 118.102666 -31.897423 -85.930491 42.246444 -24.919218 -16.817675 6.944988 -0.748433 -26.251044 -100.202784 68.933481 -17.053452 167.367147 71.058399 157.443197 138.760137 62.604817 136.976891 2.200382 -16.638231 29.558810 -9.529350 -39.196179 6.427281 0.580425 -0.437742 0.424389 77.590604 63.310540 8.436069 81.370317 80.043187 8.888221 -6.947969 14.028207 -100.787911 -3.227099 -47.780755 85.948901 -52.401935 -25.446819 7.819499 -0.581085 -0.431840 0.450184 0.569673 0.436479 -0.604680 56.854520 39.229196 78.595841 47.918007 17.399177 173.300575 23.293965 -36.528228 34.658197 7.605441 -7.145412 53.287620 28.332299 38.939539 22.581257 -0.568379 0.641235 -0.614045 -0.603179 -0.550558 -0.376339 
98.204239 9.543531 8.244841 89.484694 -7.742205 -56.451488 -72.328193 -42.898104 34.129503 -1.036186 5.999132 -45.143015 -110.481645 63.968707 -70.404866 -35.620516 39.440358 -46.146134 3.575279 -2.167188 6.242118 27.863389 -0.789363 -104.990025 67.141163 -63.538579 -130.367544 118.313008 -31.662219 -85.871636 41.756743 -25.385226 -16.807924 6.891605 -0.801746 -25.656761 -100.084832 68.913100 -17.126200 167.599599 71.144915 157.584403 139.249361 62.532731 137.191730 2.068563 -16.311327 29.843470 -9.215883 -39.433848 6.407890 0.596726 -0.432589 0.428452 77.183346 63.239468 8.062321 78.538514 79.744617 6.002620 -6.850812 14.582773 -101.104930 -1.558512 -47.394157 84.434861 -53.285368 -25.400937 7.778253 -0.617288 -0.431360 0.433465 0.565603 0.398463 -0.588241 56.653249 39.291986 78.384910 47.828574 17.655521 173.056791 23.813244 -36.685257 34.547594 7.109587 -6.959164 52.890009 28.803528 36.456092 24.155852 -0.604733 0.646146 -0.592204 -0.556469 -0.564585 -0.403329 
98.203743 9.544290 8.245889 89.490309 -7.911497 -56.387475 -72.212034 -42.891818 34.107291 -0.863005 6.109521 -45.396522 -111.201417 64.542293 -69.756129 -35.920315 39.432280 -45.780188 3.581340 -2.218139 6.558496 28.073229 -0.698025 -104.682413 67.381825 -63.383709 -130.608331 118.226914 -31.215389 -85.559042 40.626983 -25.799036 -16.657275 6.895581 -0.882210 -25.217410 -99.713502 68.959329 -17.073863 167.779586 71.075713 157.954124 139.529049 62.790208 137.377573 2.419371 -16.039858 29.558328 -9.605848 -39.731596 7.042319 0.596233 -0.446242 0.445872 77.022321 63.231839 8.130879 75.386570 79.503647 2.834625 -7.061682 15.019530 -101.342798 2.150578 -46.954895 80.018427 -54.065319 -26.248829 7.434355 -0.593829 -0.445513 0.469914 0.582067 0.445927 -0.622608 56.399348 39.466518 78.060892 47.703876 17.882381 172.852313 24.528430 -36.967718 34.390743 7.357136 -6.754142 51.893831 28.677327 35.041291 23.753983 -0.594178 0.653669 -0.635713 -0.612197 -0.574950 -0.394577 
98.203186 9.544996 8.246942 89.464997 -8.008423 -56.286620 -72.342837 -42.799391 34.078477 -0.373154 6.240308 -45.352372 -112.196452 65.016534 -69.514827 -36.705678 39.393204 -45.992282 3.564540 -2.223096 7.142836 28.315952 -0.541166 -104.413230 67.074935 -63.171929 -130.475272 118.309522 -30.713468 -85.595855 40.237978 -26.574380 -16.556523 6.823166 -0.955314 -24.287140 -99.493896 68.964813 -17.073907 167.972395 71.154214 158.000079 139.902856 62.723775 137.451588 2.256024 -15.459115 29.878068 -9.253814 -39.789797 6.849799 0.617786 -0.456770 0.443678 76.876060 63.072730 7.991044 72.792073 79.073604 0.317374 -7.183308 15.577773 -101.852445 3.293222 -46.290605 77.583005 -55.392708 -26.733520 7.626336 -0.641204 -0.437544 0.457686 0.590823 0.426652 -0.608753 56.207541 39.530718 77.816686 47.512268 18.194180 172.560031 25.080339 -37.283712 34.367065 7.116381 -6.500015 51.136898 28.916050 32.511486 24.422056 -0.616842 0.659115 -0.609265 -0.586366 -0.581249 -0.411558 
98.202484 9.545536 8.247968 89.535546 -8.121021 -56.283648 -72.372652 -42.823434 34.150533 -0.210820 6.441165 -45.666023 -112.890869 65.626764 -68.681900 -37.315550 39.468214 -46.066738 3.592053 -2.276029 7.182836 28.593210 -0.526227 -104.028072 67.196950 -62.824810 -130.471698 118.008467 -30.203486 -85.347106 39.449406 -27.196926 -16.475485 6.862803 -1.049316 -23.857245 -99.291661 69.042428 -17.078127 168.220671 71.104709 158.423762 140.147562 63.034499 137.575863 2.693556 -14.938891 29.619977 -9.857633 -39.944751 7.568095 0.617759 -0.458127 0.477338 76.903077 63.017293 8.309733 69.025224 78.679751 -3.322280 -7.597407 16.082997 -102.185260 6.559852 -45.281207 71.915175 -56.105280 -28.117391 7.374355 -0.625948 -0.474208 0.501014 0.594069 0.447741 -0.635965 56.045277 39.767719 77.474363 47.345319 18.414551 172.374887 25.727074 -37.510959 34.349164 7.603682 -6.387717 49.998919 28.948745 31.208016 22.579841 -0.619526 0.673942 -0.642465 -0.605663 -0.599163 -0.416761 
98.201675 9.545962 8.248994 89.553315 -8.208615 -56.197246 -72.667499 -42.759148 34.238908 0.295202 6.573440 -45.628296 -113.915923 66.025861 -68.616359 -38.432327 39.286460 -46.904294 3.589198 -2.274530 7.263122 28.906045 -0.388769 -103.769680 66.686266 -62.619794 -130.052428 117.975989 -29.708130 -85.497172 39.597415 -28.111021 -16.724033 6.799481 -1.126219 -22.839205 -99.211054 69.072139 -17.161634 168.190878 71.174125 158.263703 140.474377 63.095202 137.707796 2.441035 -14.230772 29.961234 -9.654050 -39.579914 7.515263 0.628683 -0.499773 0.471639 77.079064 62.815873 8.412977 66.437979 78.137030 -5.655484 -8.155657 16.670092 -102.826020 6.431093 -44.617885 69.068488 -57.538199 -28.262132 8.291907 -0.656723 -0.455361 0.485416 0.618404 0.456664 -0.636931 55.930096 39.921044 77.180499 47.043299 18.670038 172.073579 26.029150 -37.866122 34.632715 7.685595 -5.950039 49.233155 28.257584 29.245182 22.170115 -0.634922 0.682774 -0.633599 -0.619344 -0.608233 -0.421312 
